<svg width="16" height="16" viewBox="0 0 16 16" fill="none" xmlns="http://www.w3.org/2000/svg">
<path d="M15.3086 7.99916C15.3063 9.78637 14.6505 11.5111 13.4649 12.8484C12.2792 14.1857 10.6455 15.0433 8.87145 15.2596C8.83195 15.2641 8.79195 15.2601 8.75408 15.248C8.71622 15.2359 8.68136 15.2159 8.65179 15.1893C8.62222 15.1628 8.59863 15.1302 8.58256 15.0938C8.56649 15.0575 8.55831 15.0181 8.55856 14.9784V9.68666H10.2461C10.3232 9.68683 10.3995 9.67114 10.4703 9.64057C10.5411 9.61 10.6048 9.5652 10.6576 9.50896C10.7103 9.45271 10.751 9.38622 10.7769 9.31361C10.8029 9.24101 10.8137 9.16384 10.8086 9.08689C10.7961 8.94225 10.7294 8.80767 10.6218 8.71023C10.5142 8.61279 10.3736 8.5597 10.2285 8.56166H8.55856V6.87416C8.55856 6.57579 8.67709 6.28964 8.88807 6.07866C9.09904 5.86768 9.38519 5.74916 9.68356 5.74916H10.8086C10.8857 5.74933 10.962 5.73364 11.0328 5.70307C11.1036 5.6725 11.1673 5.6277 11.2201 5.57146C11.2728 5.51521 11.3135 5.44872 11.3394 5.37611C11.3654 5.30351 11.3762 5.22634 11.3711 5.14939C11.3586 5.0045 11.2917 4.86972 11.1838 4.77224C11.0759 4.67477 10.935 4.62185 10.7896 4.62416H9.68356C9.08682 4.62416 8.51453 4.86121 8.09257 5.28317C7.67061 5.70512 7.43356 6.27742 7.43356 6.87416V8.56166H5.74606C5.66895 8.56149 5.59263 8.57718 5.52183 8.60775C5.45104 8.63832 5.38729 8.68311 5.33454 8.73936C5.28179 8.79561 5.24116 8.8621 5.21519 8.9347C5.18922 9.00731 5.17845 9.08448 5.18356 9.16142C5.196 9.30631 5.26293 9.44109 5.37085 9.53857C5.47877 9.63605 5.61964 9.68897 5.76505 9.68666H7.43356V14.9798C7.4338 15.0195 7.42564 15.0588 7.40961 15.0951C7.39359 15.1314 7.37005 15.1639 7.34057 15.1904C7.31108 15.217 7.2763 15.237 7.23853 15.2492C7.20075 15.2614 7.16082 15.2654 7.12137 15.261C5.29983 15.0392 3.62794 14.1416 2.43664 12.7459C1.24535 11.3501 0.621465 9.55802 0.688484 7.72424C0.829109 3.92736 3.90458 0.840643 7.70426 0.692986C8.688 0.654881 9.66931 0.815577 10.5895 1.16546C11.5097 1.51535 12.3499 2.04723 13.0598 2.7293C13.7697 3.41138 14.3347 4.22962 14.7211 5.1351C15.1075 6.04058 15.3073 7.01469 15.3086 7.99916Z" fill="#FFFDFD"/>
</svg>
