<svg width="16" height="16" viewBox="0 0 16 16" fill="none" xmlns="http://www.w3.org/2000/svg">
<path d="M7.99609 4.625C7.32858 4.625 6.67606 4.82294 6.12104 5.19379C5.56603 5.56464 5.13345 6.09174 4.878 6.70844C4.62255 7.32514 4.55572 8.00374 4.68594 8.65843C4.81617 9.31312 5.13761 9.91448 5.60961 10.3865C6.08161 10.8585 6.68298 11.1799 7.33766 11.3102C7.99235 11.4404 8.67095 11.3735 9.28765 11.1181C9.90435 10.8626 10.4315 10.4301 10.8023 9.87505C11.1732 9.32003 11.3711 8.66751 11.3711 8C11.3702 7.10518 11.0143 6.24728 10.3816 5.61454C9.74882 4.98181 8.89091 4.62593 7.99609 4.625ZM7.99609 10.25C7.55109 10.25 7.11607 10.118 6.74606 9.87081C6.37605 9.62357 6.08766 9.27217 5.91736 8.86104C5.74707 8.4499 5.70251 7.9975 5.78933 7.56105C5.87614 7.12459 6.09044 6.72368 6.4051 6.40901C6.71977 6.09434 7.12068 5.88005 7.55714 5.79323C7.9936 5.70642 8.446 5.75097 8.85713 5.92127C9.26826 6.09157 9.61967 6.37996 9.8669 6.74997C10.1141 7.11998 10.2461 7.55499 10.2461 8C10.2461 8.59674 10.009 9.16903 9.58708 9.59099C9.16513 10.0129 8.59283 10.25 7.99609 10.25ZM11.3711 0.6875H4.62109C3.57715 0.688617 2.57628 1.10382 1.83809 1.842C1.09991 2.58018 0.68471 3.58105 0.683594 4.625V11.375C0.68471 12.4189 1.09991 13.4198 1.83809 14.158C2.57628 14.8962 3.57715 15.3114 4.62109 15.3125H11.3711C12.415 15.3114 13.4159 14.8962 14.1541 14.158C14.8923 13.4198 15.3075 12.4189 15.3086 11.375V4.625C15.3075 3.58105 14.8923 2.58018 14.1541 1.842C13.4159 1.10382 12.415 0.688617 11.3711 0.6875ZM14.1836 11.375C14.1836 12.1209 13.8873 12.8363 13.3598 13.3637C12.8324 13.8912 12.117 14.1875 11.3711 14.1875H4.62109C3.87517 14.1875 3.1598 13.8912 2.63236 13.3637C2.10491 12.8363 1.80859 12.1209 1.80859 11.375V4.625C1.80859 3.87908 2.10491 3.16371 2.63236 2.63626C3.1598 2.10882 3.87517 1.8125 4.62109 1.8125H11.3711C12.117 1.8125 12.8324 2.10882 13.3598 2.63626C13.8873 3.16371 14.1836 3.87908 14.1836 4.625V11.375ZM12.4961 4.34375C12.4961 4.51063 12.4466 4.67376 12.3539 4.81251C12.2612 4.95127 12.1294 5.05941 11.9752 5.12327C11.8211 5.18713 11.6514 5.20384 11.4877 5.17129C11.3241 5.13873 11.1737 5.05837 11.0557 4.94037C10.9377 4.82237 10.8574 4.67203 10.8248 4.50836C10.7922 4.34469 10.809 4.17504 10.8728 4.02086C10.9367 3.86669 11.0448 3.73491 11.1836 3.6422C11.3223 3.54948 11.4855 3.5 11.6523 3.5C11.8761 3.5 12.0907 3.58889 12.249 3.74713C12.4072 3.90536 12.4961 4.11997 12.4961 4.34375Z" fill="#FFFDFD"/>
</svg>
