<svg width="160" height="42" viewBox="0 0 160 42" fill="none" xmlns="http://www.w3.org/2000/svg">
<g clip-path="url(#clip0_538_1501990)">
<path d="M0 31.6706C0.529967 31.6252 0.90632 31.5533 1.1329 31.4624C1.35948 31.3716 1.50541 31.2127 1.57838 30.9932C1.6475 30.77 1.68207 30.3991 1.68207 29.8769V5.72723C1.68207 5.20881 1.6475 4.83419 1.57838 4.61094C1.50925 4.38768 1.35948 4.23253 1.1329 4.14172C0.90632 4.0509 0.529967 3.98279 0 3.93738V2.44269C1.29035 2.367 2.24276 2.21564 2.85721 1.99617C3.47167 1.77291 3.95555 1.3718 4.31654 0.789062H6.13686V29.8807C6.13686 30.4029 6.17142 30.7737 6.24055 30.997C6.30967 31.2203 6.45561 31.3754 6.67067 31.4662C6.88573 31.557 7.26208 31.6289 7.78821 31.6743V33.169H0V31.6743V31.6706Z" fill="#FFFDFD"/>
<path d="M10.6109 32.2801C9.81596 31.3984 9.42041 30.1686 9.42041 28.5907V27.3949C9.42041 26.0289 9.67003 24.8937 10.1654 23.9817C10.6608 23.0698 11.3444 22.3281 12.2047 21.7529C13.0687 21.1777 14.1517 20.6518 15.4574 20.1788L18.956 18.8468V14.8471C18.956 13.4507 18.6756 12.4291 18.1149 11.7782C17.5542 11.1273 16.6863 10.8019 15.5035 10.8019C14.5549 10.8019 13.7792 11.0063 13.1724 11.4111C12.5656 11.816 12.2623 12.3117 12.2623 12.8945C12.2623 13.1859 12.3391 13.3978 12.4965 13.5378C12.6501 13.674 12.9074 13.8291 13.2646 13.9994C13.7638 14.2151 14.144 14.4649 14.409 14.7449C14.674 15.0249 14.8046 15.4903 14.8046 16.1336C14.8046 16.9018 14.5857 17.4883 14.1517 17.9046C13.7177 18.317 13.111 18.5251 12.3314 18.5251C11.4443 18.5251 10.7645 18.2186 10.2922 17.6056C9.8198 16.9926 9.5817 16.1261 9.5817 15.0098C9.5817 13.7686 9.90429 12.6637 10.5495 11.6912C11.1946 10.7187 12.1048 9.95808 13.2799 9.41696C14.4551 8.87206 15.8031 8.59961 17.3277 8.59961C21.3677 8.59961 23.3916 10.5976 23.3916 14.5973V29.7183C23.3916 30.547 23.6489 30.9595 24.1596 30.9595C24.4246 30.9595 24.7357 30.8535 25.0928 30.6378L25.0237 32.0606C24.7434 32.5525 24.3708 32.931 23.9023 33.1996C23.4338 33.4683 22.9077 33.6007 22.3163 33.6007C21.4138 33.6007 20.7494 33.3623 20.3231 32.8893C19.8969 32.4163 19.6818 31.6557 19.6818 30.6151C19.6818 30.1081 19.7432 29.4761 19.87 28.708L19.4514 28.6172C19.0481 30.2859 18.403 31.5346 17.5158 32.3633C16.6287 33.192 15.4651 33.6045 14.0173 33.6045C12.5695 33.6045 11.4059 33.1656 10.6109 32.2839V32.2801ZM18.1188 29.6351C18.6795 28.7231 18.9598 27.463 18.9598 25.8548V20.5458L17.1395 21.2572C16.1295 21.6394 15.3384 22.2108 14.7738 22.9676C14.2055 23.7244 13.9251 24.7574 13.9251 26.0591V28.0571C13.9251 29.0372 14.0903 29.7713 14.4244 30.2632C14.7585 30.7551 15.2347 30.9973 15.8568 30.9973C16.8054 30.9973 17.5581 30.5394 18.1188 29.6275V29.6351Z" fill="#FFFDFD"/>
<path d="M64.9439 32.2801C64.1528 31.3984 63.7534 30.1686 63.7534 28.5907V27.3949C63.7534 26.0289 64.003 24.8937 64.4984 23.9817C64.9938 23.0698 65.6736 22.3281 66.5377 21.7529C67.4017 21.1777 68.4847 20.6518 69.7904 20.1788L73.289 18.8468V14.8471C73.289 13.4507 73.0086 12.4291 72.4479 11.7782C71.8873 11.1273 71.0155 10.8019 69.8365 10.8019C68.888 10.8019 68.1122 11.0063 67.5054 11.4111C66.8987 11.816 66.5953 12.3117 66.5953 12.8945C66.5953 13.1859 66.6721 13.3978 66.8295 13.5378C66.9831 13.674 67.2404 13.8291 67.5976 13.9994C68.0968 14.2151 68.4732 14.4649 68.742 14.7449C69.007 15.0287 69.1376 15.4903 69.1376 16.1336C69.1376 16.9018 68.9187 17.4883 68.4847 17.9046C68.0508 18.317 67.444 18.5251 66.6644 18.5251C65.7773 18.5251 65.0975 18.2186 64.6252 17.6056C64.1528 16.9926 63.9147 16.1261 63.9147 15.0098C63.9147 13.7686 64.2373 12.6637 64.8825 11.6912C65.5277 10.7187 66.4378 9.95808 67.6091 9.41696C68.7843 8.87206 70.1322 8.59961 71.6568 8.59961C75.7007 8.59961 77.7207 10.5976 77.7207 14.5973V29.7183C77.7207 30.547 77.978 30.9595 78.4888 30.9595C78.7538 30.9595 79.0648 30.8535 79.422 30.6378L79.3529 32.0606C79.0725 32.5525 78.7 32.931 78.2353 33.1996C77.7707 33.4683 77.2407 33.6007 76.6493 33.6007C75.7468 33.6007 75.0824 33.3623 74.6561 32.8893C74.2299 32.4163 74.0148 31.6557 74.0148 30.6151C74.0148 30.1081 74.0762 29.4761 74.203 28.708L73.7844 28.6172C73.3811 30.2859 72.736 31.5346 71.8489 32.3633C70.9617 33.192 69.7981 33.6045 68.3503 33.6045C66.9025 33.6045 65.7389 33.1656 64.9439 32.2839V32.2801ZM72.4518 29.6351C73.0125 28.7231 73.2928 27.463 73.2928 25.8548V20.5458L71.4725 21.2572C70.4625 21.6394 69.6752 22.2108 69.1068 22.9676C68.5385 23.7244 68.2543 24.7574 68.2543 26.0591V28.0571C68.2543 29.0372 68.4233 29.7713 68.7535 30.2632C69.0876 30.7551 69.5677 30.9973 70.1898 30.9973C71.1384 30.9973 71.8911 30.5394 72.4518 29.6275V29.6351Z" fill="#FFFDFD"/>
<path d="M80.4052 39.7117C80.9313 39.6663 81.3115 39.5944 81.5343 39.5036C81.7609 39.4128 81.9068 39.2538 81.9798 39.0344C82.0489 38.8111 82.0834 38.4403 82.0834 37.9181V13.7457C82.0834 13.2235 82.0489 12.8526 81.9798 12.6294C81.9106 12.4061 81.7609 12.251 81.5343 12.1601C81.3077 12.0693 80.9313 11.9974 80.4052 11.952V10.4573C81.6648 10.3816 82.6019 10.2303 83.2163 10.0108C83.8308 9.78756 84.3147 9.39402 84.6757 8.82641H86.423C86.3769 9.94649 86.1196 11.585 85.655 13.7457L86.1004 13.8592C86.519 12.0655 87.1488 10.7601 87.9899 9.9427C88.8309 9.12157 89.9254 8.71289 91.2772 8.71289C93.0169 8.71289 94.3533 9.36753 95.2788 10.6768C96.2044 11.9861 96.6652 13.8743 96.6652 16.3415V25.8319C96.6652 28.3142 96.2082 30.21 95.2904 31.5193C94.3725 32.8285 93.0591 33.4832 91.3502 33.4832C89.9638 33.4832 88.8463 33.0707 87.9937 32.242C87.1373 31.4133 86.5075 30.1116 86.1043 28.3369L85.6857 28.4504C85.9814 29.8619 86.1926 31.069 86.327 32.0717C86.4614 33.0745 86.5267 34.0129 86.5267 34.8871L86.5498 37.9673C86.5498 38.4743 86.592 38.8338 86.6765 39.0457C86.761 39.2614 86.9453 39.4128 87.2257 39.5074C87.506 39.602 87.9707 39.6701 88.6235 39.7155V41.2102H80.4129V39.7155L80.4052 39.7117ZM91.5422 30.0738C91.9685 29.2678 92.1835 28.0417 92.1835 26.3843V15.8155C92.1835 14.1619 91.9685 12.9321 91.5422 12.1261C91.1159 11.3239 90.4669 10.919 89.5951 10.919C88.6159 10.919 87.8632 11.4866 87.3332 12.618C86.8071 13.7494 86.5421 15.3198 86.5421 17.3291V24.8404C86.5421 26.8649 86.8071 28.4428 87.3332 29.5743C87.8632 30.7095 88.6159 31.2771 89.5951 31.2771C90.4669 31.2771 91.1159 30.876 91.5422 30.07V30.0738Z" fill="#FFFDFD"/>
<path d="M98.4548 31.6713C98.9847 31.6259 99.3611 31.554 99.5877 31.4632C99.8143 31.3724 99.9602 31.2134 100.033 30.994C100.102 30.7707 100.137 30.3999 100.137 29.8777V13.769C100.137 13.2469 100.102 12.876 100.033 12.6528C99.964 12.4295 99.8143 12.2744 99.5877 12.1835C99.3611 12.0927 98.9847 12.0246 98.4548 11.9754V10.4807C99.7451 10.405 100.698 10.2537 101.312 10.0342C101.926 9.81095 102.41 9.40984 102.771 8.8271H104.592V29.8739C104.592 30.3961 104.626 30.7669 104.695 30.9902C104.764 31.2134 104.91 31.3686 105.125 31.4594C105.34 31.5502 105.717 31.6221 106.243 31.6675V33.1622H98.4548V31.6675V31.6713ZM100.171 5.61067C99.6338 5.14902 99.3688 4.52087 99.3688 3.72622C99.3688 2.93157 99.6376 2.32613 100.171 1.86448C100.705 1.40282 101.443 1.17578 102.376 1.17578C103.309 1.17578 104.019 1.40282 104.557 1.85312C105.091 2.30342 105.36 2.91265 105.36 3.68081C105.36 4.4906 105.095 5.1301 104.565 5.59932C104.035 6.06475 103.305 6.29936 102.372 6.29936C101.439 6.29936 100.705 6.06854 100.168 5.61067H100.171Z" fill="#FFFDFD"/>
<path d="M110.49 32.3705C109.745 31.5835 109.373 30.4142 109.373 28.8665V10.7372H106.996V9.129C108.378 9.129 109.396 8.97007 110.053 8.64464C110.705 8.323 111.174 7.66836 111.462 6.68073C111.75 5.69309 111.938 4.11137 112.034 1.93555H113.805V9.03818H118.094V10.7372H113.805V28.6622C113.805 29.4266 113.958 29.979 114.273 30.3158C114.584 30.6526 115.056 30.8229 115.694 30.8229C116.516 30.8229 117.295 30.5315 118.025 29.9488L118.094 31.4207C117.595 32.1397 116.977 32.677 116.239 33.029C115.502 33.3809 114.688 33.5587 113.801 33.5587C112.338 33.5587 111.235 33.1652 110.49 32.3743V32.3705Z" fill="#FFFDFD"/>
<path d="M120.633 32.2801C119.838 31.3984 119.442 30.1686 119.442 28.5907V27.3949C119.442 26.0289 119.692 24.8937 120.187 23.9817C120.683 23.0698 121.366 22.3281 122.227 21.7529C123.091 21.1777 124.174 20.6518 125.479 20.1788L128.978 18.8468V14.8471C128.978 13.4507 128.698 12.4291 128.137 11.7782C127.576 11.1273 126.708 10.8019 125.525 10.8019C124.577 10.8019 123.801 11.0063 123.194 11.4111C122.588 11.816 122.284 12.3117 122.284 12.8945C122.284 13.1859 122.361 13.3978 122.518 13.5378C122.672 13.674 122.929 13.8291 123.287 13.9994C123.786 14.2151 124.166 14.4649 124.431 14.7449C124.696 15.0249 124.827 15.4903 124.827 16.1336C124.827 16.9018 124.608 17.4883 124.174 17.9046C123.74 18.317 123.133 18.5251 122.353 18.5251C121.466 18.5251 120.787 18.2186 120.314 17.6056C119.842 16.9926 119.604 16.1261 119.604 15.0098C119.604 13.7686 119.926 12.6637 120.571 11.6912C121.217 10.7187 122.127 9.95808 123.302 9.41696C124.477 8.87206 125.825 8.59961 127.35 8.59961C131.39 8.59961 133.414 10.5976 133.414 14.5973V29.7183C133.414 30.547 133.671 30.9595 134.182 30.9595C134.447 30.9595 134.758 30.8535 135.115 30.6378L135.046 32.0606C134.765 32.5525 134.393 32.931 133.928 33.1996C133.46 33.4683 132.933 33.6007 132.342 33.6007C131.44 33.6007 130.775 33.3623 130.349 32.8893C129.923 32.4163 129.708 31.6557 129.708 30.6151C129.708 30.1081 129.769 29.4761 129.896 28.708L129.477 28.6172C129.074 30.2859 128.429 31.5346 127.542 32.3633C126.655 33.192 125.491 33.6045 124.043 33.6045C122.595 33.6045 121.432 33.1656 120.637 32.2839L120.633 32.2801ZM128.145 29.6351C128.705 28.7231 128.986 27.463 128.986 25.8548V20.5458L127.165 21.2572C126.155 21.6394 125.364 22.2108 124.8 22.9676C124.231 23.7244 123.951 24.7574 123.951 26.0591V28.0571C123.951 29.0372 124.116 29.7713 124.45 30.2632C124.784 30.7551 125.261 30.9973 125.883 30.9973C126.831 30.9973 127.584 30.5394 128.145 29.6275V29.6351Z" fill="#FFFDFD"/>
<path d="M136.094 31.6706C136.624 31.6252 137 31.5533 137.227 31.4624C137.453 31.3716 137.599 31.2127 137.672 30.9932C137.741 30.77 137.776 30.3991 137.776 29.8769V5.72723C137.776 5.20881 137.741 4.83419 137.672 4.61094C137.603 4.38768 137.453 4.23253 137.227 4.14172C137 4.0509 136.624 3.98279 136.094 3.93738V2.44269C137.384 2.367 138.337 2.21564 138.951 1.99617C139.566 1.77291 140.049 1.3718 140.41 0.789062H142.231V29.8807C142.231 30.4029 142.265 30.7737 142.334 30.997C142.404 31.2203 142.549 31.3754 142.765 31.4662C142.98 31.557 143.356 31.6289 143.882 31.6743V33.169H136.094V31.6743V31.6706Z" fill="#FFFDFD"/>
<path d="M157.922 24.4785L160 24.7775V25.9278C160 28.5463 159.381 30.4838 158.145 31.7401C156.908 32.9964 155.195 33.6245 153.003 33.6245C150.625 33.6245 148.813 32.9056 147.569 31.4638C146.324 30.0259 145.702 27.9333 145.702 25.1899V16.9861C145.702 14.2276 146.324 12.1388 147.569 10.7122C148.813 9.2894 150.637 8.57422 153.049 8.57422C155.303 8.57422 157.027 9.20994 158.214 10.4814C159.401 11.7528 160 13.5843 160 15.972C160 17.7354 159.977 19.389 159.931 20.9329H150.134V24.6791C150.134 26.7792 150.46 28.3344 151.113 29.3561C151.766 30.374 152.768 30.8849 154.12 30.8849C155.334 30.8849 156.271 30.4724 156.931 29.6437C157.592 28.815 157.922 27.4603 157.922 25.5759V24.4747V24.4785ZM150.844 11.4614C150.372 12.3431 150.134 13.7016 150.134 15.5406V19.3776H154.285C154.765 19.3776 155.107 19.283 155.299 19.09C155.495 18.8971 155.591 18.5565 155.591 18.0684V14.2768C155.591 12.8994 155.368 11.8625 154.927 11.1739C154.485 10.4852 153.836 10.1408 152.98 10.1408C152.031 10.1408 151.321 10.5798 150.844 11.4614Z" fill="#FFFDFD"/>
<path d="M46.4873 28.5188V32.3936C41.299 29.5934 41.7137 19.4144 41.7137 19.4144C41.7137 19.4144 41.4027 9.28453 46.4873 6.43515V10.4538C44.8052 14.4081 44.9627 19.4182 44.9627 19.4182C44.9627 19.4182 44.7553 24.5493 46.4873 28.5263V28.5188ZM52.0903 7.49468V5.72754C50.7846 5.84106 49.7132 6.3292 48.8452 7.05573C47.8084 7.92606 47.0518 9.12182 46.4911 10.45V28.5226C47.0518 29.8091 47.8084 30.9746 48.8452 31.8033C49.717 32.5071 50.7846 32.9802 52.0903 33.0899V31.3833C50.4428 30.3502 49.694 27.1944 49.3291 24.3298C49.1218 22.6951 49.0296 21.0491 49.0373 19.4144C49.0488 17.6056 49.1947 15.8044 49.4712 14.0184C49.8975 11.3695 50.6656 8.52772 52.0865 7.49847L52.0903 7.49468ZM60.0245 6.07567C59.8478 6.29136 59.6827 6.45407 59.5175 6.54489C59.3601 6.63571 59.195 6.68868 59.0183 6.68868C58.8839 6.68868 58.7264 6.65841 58.5498 6.59787C58.3616 6.54489 58.1773 6.47678 57.9699 6.38218C57.4092 6.16649 56.8908 5.99242 56.4146 5.88268C55.946 5.76159 55.3661 5.69727 54.6826 5.69727C53.6956 5.69727 52.8354 5.9016 52.0903 6.26109V11.169C52.724 8.92126 53.7186 7.08979 55.2855 7.08979C56.0536 7.08979 56.6757 7.36602 57.1749 7.90714C57.6742 8.45961 58.1081 9.45103 58.5037 10.9117C58.8877 12.3647 59.2487 14.4497 59.5828 17.1894H61.2303V6.07567H60.0283H60.0245ZM59.579 21.6432H61.2265V32.7418H60.0245C59.8478 32.5261 59.6827 32.3747 59.5175 32.2725C59.3601 32.1817 59.195 32.1287 59.0183 32.1287C58.8839 32.1287 58.7264 32.159 58.5498 32.2196C58.3616 32.2725 58.1773 32.352 57.9699 32.4353C57.4092 32.6509 56.8908 32.825 56.4146 32.9461C55.946 33.0596 55.3661 33.1202 54.6826 33.1202C53.6956 33.1202 52.8354 32.9272 52.0903 32.579V28.0912C52.7009 30.1459 53.6994 31.7314 55.2855 31.7314C56.0536 31.7314 56.6757 31.4665 57.1749 30.9141C57.6742 30.373 58.1081 29.3702 58.5037 27.9209C58.8877 26.4603 59.2487 24.3753 59.5828 21.6432H59.579ZM40.6269 10.4349V28.3825C38.9871 24.4055 39.1868 19.3349 39.1868 19.3349C39.1868 19.3349 39.0409 14.3892 40.6269 10.4311V10.4349Z" fill="#FFFDFD"/>
</g>
<defs>
<clipPath id="clip0_538_1501990">
<rect width="160" height="40.4211" fill="white" transform="translate(0 0.789062)"/>
</clipPath>
</defs>
</svg>
