<svg width="20" height="20" viewBox="0 0 20 20" fill="none" xmlns="http://www.w3.org/2000/svg">
<path d="M13.4419 10C13.4419 10.9128 13.0792 11.7883 12.4338 12.4338C11.7883 13.0792 10.9128 13.4419 10 13.4419V14C12.2091 14 14 12.2091 14 10H13.4419ZM10 13.4419C9.08716 13.4419 8.21171 13.0792 7.56624 12.4338C6.92076 11.7883 6.55814 10.9128 6.55814 10H6C6 12.2091 7.79088 14 10 14V13.4419ZM6.55814 10C6.55814 9.08716 6.92076 8.21171 7.56624 7.56624C8.21171 6.92076 9.08716 6.55814 10 6.55814V6C7.79088 6 6 7.79088 6 10H6.55814ZM11.3023 10.8372C10.7349 10.8372 10.1907 10.6118 9.78945 10.2106C9.38821 9.80931 9.16279 9.26511 9.16279 8.69767H8.60465C8.60465 9.41314 8.88887 10.0993 9.39478 10.6052C9.90069 11.1111 10.5869 11.3953 11.3023 11.3953V10.8372ZM13.1349 9.80242C12.9445 10.1182 12.6757 10.3794 12.3546 10.5607C12.0336 10.742 11.6711 10.8373 11.3023 10.8372V11.3953C11.7672 11.3955 12.2242 11.2755 12.6291 11.047C13.034 10.8185 13.3729 10.4892 13.613 10.0912L13.1349 9.80242ZM9.16279 8.69767C9.16274 8.32894 9.25798 7.96645 9.43929 7.64537C9.62059 7.32429 9.8818 7.05551 10.1976 6.86512L9.90884 6.38735C9.51083 6.62745 9.18161 6.96633 8.95311 7.37111C8.72461 7.77589 8.60458 8.23285 8.60465 8.69767H9.16279ZM10 6.55814C9.9813 6.55778 9.96286 6.55371 9.94574 6.54618C9.92862 6.53864 9.91317 6.52778 9.90028 6.51423C9.88459 6.49848 9.87397 6.47839 9.86977 6.45656C9.86828 6.44502 9.86902 6.41153 9.90884 6.38735L10.1976 6.86512C10.3847 6.752 10.445 6.54474 10.4231 6.38177C10.4 6.21247 10.2668 6 10 6V6.55814ZM13.613 10.0912C13.5885 10.131 13.555 10.1317 13.5434 10.1302C13.5216 10.126 13.5015 10.1154 13.4858 10.0997C13.4722 10.0868 13.4614 10.0714 13.4538 10.0543C13.4463 10.0371 13.4422 10.0187 13.4419 10H14C14 9.73321 13.7875 9.6 13.6182 9.57693C13.4553 9.55498 13.248 9.61526 13.1349 9.80242L13.613 10.0912Z" fill="#E6E6E6"/>
</svg>
