<svg width="20" height="20" viewBox="0 0 20 20" fill="none" xmlns="http://www.w3.org/2000/svg">
<path fill-rule="evenodd" clip-rule="evenodd" d="M10.6 4.99922C10.6 4.83353 10.4657 4.69922 10.3 4.69922C10.1343 4.69922 10 4.83353 10 4.99922V5.49922C10 5.6649 10.1343 5.79922 10.3 5.79922C10.4657 5.79922 10.6 5.6649 10.6 5.49922V4.99922ZM6.97663 6.25159C6.85947 6.13443 6.66953 6.13443 6.55237 6.25159C6.43521 6.36874 6.43521 6.55869 6.55237 6.67585L6.74887 6.87235C6.86603 6.98951 7.05597 6.98951 7.17313 6.87235C7.29029 6.75519 7.29029 6.56524 7.17313 6.44809L6.97663 6.25159ZM14.0474 6.67608C14.1644 6.55877 14.1642 6.36882 14.0469 6.25182C13.9296 6.13481 13.7396 6.13505 13.6226 6.25236L13.4266 6.44886C13.3096 6.56616 13.3098 6.75611 13.4271 6.87312C13.5444 6.99013 13.7344 6.98989 13.8514 6.87258L14.0474 6.67608ZM5.3 9.69922C5.13431 9.69922 5 9.83353 5 9.99922C5 10.1649 5.13431 10.2992 5.3 10.2992H5.8C5.96569 10.2992 6.1 10.1649 6.1 9.99922C6.1 9.83353 5.96569 9.69922 5.8 9.69922H5.3ZM14.8 9.69922C14.6343 9.69922 14.5 9.83353 14.5 9.99922C14.5 10.1649 14.6343 10.2992 14.8 10.2992H15.3C15.4657 10.2992 15.6 10.1649 15.6 9.99922C15.6 9.83353 15.4657 9.69922 15.3 9.69922H14.8ZM13.8514 13.1259C13.7344 13.0086 13.5444 13.0083 13.4271 13.1253C13.3098 13.2423 13.3096 13.4323 13.4266 13.5496L13.6226 13.7461C13.7396 13.8634 13.9296 13.8636 14.0469 13.7466C14.1642 13.6296 14.1644 13.4397 14.0474 13.3224L13.8514 13.1259ZM7.17313 13.5504C7.29029 13.4332 7.29029 13.2432 7.17313 13.1261C7.05598 13.0089 6.86603 13.0089 6.74887 13.1261L6.55237 13.3226C6.43521 13.4397 6.43521 13.6297 6.55237 13.7469C6.66953 13.864 6.85947 13.864 6.97663 13.7469L7.17313 13.5504ZM10.6 14.4992C10.6 14.3335 10.4657 14.1992 10.3 14.1992C10.1343 14.1992 10 14.3335 10 14.4992V14.9992C10 15.1649 10.1343 15.2992 10.3 15.2992C10.4657 15.2992 10.6 15.1649 10.6 14.9992V14.4992ZM7.6 9.99922C7.6 8.50805 8.80883 7.29922 10.3 7.29922C11.7912 7.29922 13 8.50805 13 9.99922C13 11.4904 11.7912 12.6992 10.3 12.6992C8.80883 12.6992 7.6 11.4904 7.6 9.99922ZM10.3 6.69922C8.47746 6.69922 7 8.17668 7 9.99922C7 11.8218 8.47746 13.2992 10.3 13.2992C12.1225 13.2992 13.6 11.8218 13.6 9.99922C13.6 8.17668 12.1225 6.69922 10.3 6.69922Z" fill="#1E1E1E"/>
</svg>
