<svg width="13" height="16" viewBox="0 0 13 16" fill="none" xmlns="http://www.w3.org/2000/svg">
<path d="M12.9078 14.1776L8.28422 6.9113L12.8465 1.89254C12.9497 1.77623 13.0029 1.62393 12.9945 1.46867C12.9862 1.31342 12.917 1.16771 12.8019 1.06314C12.6868 0.958566 12.5352 0.903564 12.3798 0.910055C12.2245 0.916545 12.078 0.984005 11.972 1.09781L7.62613 5.878L4.63555 1.17832C4.58222 1.09438 4.50857 1.02526 4.42142 0.977357C4.33427 0.929457 4.23644 0.904328 4.137 0.904297H0.591736C0.485792 0.904245 0.381783 0.932679 0.290601 0.986621C0.199418 1.04056 0.124415 1.11803 0.0734457 1.2109C0.0224766 1.30378 -0.00258375 1.40865 0.000888633 1.51454C0.00436101 1.62043 0.0362384 1.72343 0.093183 1.81277L4.7168 9.07834L0.154487 14.1008C0.101209 14.158 0.0598207 14.2253 0.0327199 14.2986C0.00561906 14.372 -0.00665521 14.4499 -0.00339118 14.5281C-0.00012715 14.6062 0.0186103 14.6829 0.0517348 14.7537C0.0848592 14.8246 0.131712 14.8881 0.189577 14.9407C0.247443 14.9933 0.315171 15.0339 0.388835 15.0601C0.462499 15.0863 0.540635 15.0976 0.618713 15.0934C0.696791 15.0892 0.77326 15.0696 0.843686 15.0356C0.914112 15.0016 0.977095 14.954 1.02898 14.8955L5.37489 10.1153L8.36546 14.815C8.41923 14.8983 8.49306 14.9667 8.58019 15.0139C8.66731 15.0611 8.76491 15.0857 8.86401 15.0853H12.4093C12.5151 15.0853 12.619 15.0569 12.7101 15.003C12.8011 14.9491 12.8761 14.8717 12.927 14.7789C12.9779 14.6862 13.003 14.5814 12.9997 14.4756C12.9963 14.3699 12.9646 14.2669 12.9078 14.1776ZM9.18826 13.9036L1.66787 2.08605H3.8098L11.3331 13.9036H9.18826Z" fill="#FFFDFD"/>
</svg>
