<svg width="16" height="14" viewBox="0 0 16 14" fill="none" xmlns="http://www.w3.org/2000/svg">
<path d="M15.595 2.82342C15.5277 2.56009 15.3987 2.31655 15.2188 2.11287C15.0388 1.90919 14.813 1.75122 14.56 1.65199C12.1114 0.706275 8.21429 0.714846 8 0.714846C7.78571 0.714846 3.88857 0.706275 1.44 1.65199C1.18697 1.75122 0.961167 1.90919 0.781211 2.11287C0.601254 2.31655 0.472304 2.56009 0.405 2.82342C0.22 3.53627 0 4.83913 0 7.00056C0 9.16199 0.22 10.4648 0.405 11.1777C0.472203 11.4412 0.601107 11.6848 0.78107 11.8887C0.961033 12.0925 1.18689 12.2505 1.44 12.3498C3.78571 13.2548 7.45714 13.2863 7.95286 13.2863H8.04714C8.54286 13.2863 12.2164 13.2548 14.56 12.3498C14.8131 12.2505 15.039 12.0925 15.2189 11.8887C15.3989 11.6848 15.5278 11.4412 15.595 11.1777C15.78 10.4634 16 9.16199 16 7.00056C16 4.83913 15.78 3.53627 15.595 2.82342ZM10.3279 7.46627L7.47071 9.46628C7.38525 9.52615 7.28502 9.56147 7.18089 9.56842C7.07677 9.57537 6.97274 9.55367 6.88007 9.50568C6.78741 9.4577 6.70965 9.38525 6.65525 9.2962C6.60084 9.20716 6.57185 9.10491 6.57143 9.00056V5.00056C6.57146 4.89603 6.60016 4.7935 6.65441 4.70415C6.70867 4.6148 6.78639 4.54204 6.87913 4.49379C6.97186 4.44555 7.07605 4.42366 7.18036 4.43052C7.28467 4.43739 7.3851 4.47273 7.47071 4.5327L10.3279 6.5327C10.403 6.58541 10.4644 6.65544 10.5067 6.73688C10.5491 6.81832 10.5712 6.90876 10.5712 7.00056C10.5712 7.09236 10.5491 7.1828 10.5067 7.26424C10.4644 7.34568 10.403 7.41571 10.3279 7.46842V7.46627Z" fill="#FFFDFD"/>
</svg>
